<?xml version="1.0" encoding="iso-8859-1"?>
<!-- Generator: Adobe Illustrator 19.0.0, SVG Export Plug-In . SVG Version: 6.00 Build 0)  -->
<svg xmlns="http://www.w3.org/2000/svg" xmlns:xlink="http://www.w3.org/1999/xlink" version="1.1" id="Layer_1" x="0px" y="0px" viewBox="0 0 512 512" style="enable-background:new 0 0 512 512;" xml:space="preserve" width="512px" height="512px">
<g>
	<g>
		<path d="M105,90H90v30h15c8.276,0,15-6.724,15-15S113.276,90,105,90z" fill="#0f4bba"/>
	</g>
</g>
<g>
	<g>
		<path d="M512,407v-60c0-20.87-14.348-38.306-33.651-43.372l-20.284-60.866C451.927,224.363,434.773,212,415.379,212H280.423    c-20.684,0-38.643,14.019-43.213,32.622l-21.297,58.925C196.474,308.52,182,326.033,182,347v60c0,19.53,12.578,36.024,30,42.237    V482h-62V377c0-8.291-6.709-15-15-15h-15V240h15c44.019,0,75-30.981,75-75V75c0-41.353-33.647-75-75-75H75C33.647,0,0,33.647,0,75    v90c0,41.353,33.647,75,75,75h15v122H75c-8.291,0-15,6.709-15,15v105H15c-8.291,0-15,6.709-15,15c0,8.291,6.709,15,15,15    c159.851,0,321.775,0,482,0c8.291,0,15-6.709,15-15c0-8.291-6.709-15-15-15h-15v-32.763C499.422,443.024,512,426.53,512,407z     M90,150v15c0,8.291-6.709,15-15,15s-15-6.709-15-15c0-11.968,0-16.732,0-18.56c0-0.742,0-1.154,0-1.126    c0-3.516,0-18.094,0-70.314c0-8.291,6.709-15,15-15h30c24.814,0,45,20.186,45,45c0,24.814-20.186,45-45,45H90z M272,347    c0,8.276-6.724,15-15,15h-45v-15c0-8.276,6.724-15,15-15h45V347z M392,482h-90v-30h90V482z M317,377c0-8.291,6.709-15,15-15h30    c8.291,0,15,6.709,15,15c0,8.291-6.709,15-15,15h-30C323.709,392,317,385.291,317,377z M402.606,276.394    c-5.859-5.859-15.352-5.859-21.211,0L355.789,302h-32.578l4.395-4.395c5.859-5.859,5.859-15.352,0-21.211s-15.352-5.859-21.211,0    L280.789,302h-32.446l17.519-48.633c1.685-6.694,7.661-11.367,14.561-11.367h134.956c6.46,0,12.188,4.116,14.238,10.254    L446.185,302h-47.974l4.395-4.395C408.465,291.746,408.465,282.253,402.606,276.394z M437,362c-8.276,0-15-6.724-15-15v-15h45    c8.276,0,15,6.724,15,15v15H437z" fill="#0f4bba"/>
	</g>
</g>
<g>
</g>
<g>
</g>
<g>
</g>
<g>
</g>
<g>
</g>
<g>
</g>
<g>
</g>
<g>
</g>
<g>
</g>
<g>
</g>
<g>
</g>
<g>
</g>
<g>
</g>
<g>
</g>
<g>
</g>
</svg>
