<?xml version="1.0" encoding="iso-8859-1"?>
<!-- Generator: Adobe Illustrator 19.0.0, SVG Export Plug-In . SVG Version: 6.00 Build 0)  -->
<svg version="1.1" id="Capa_1" xmlns="http://www.w3.org/2000/svg" xmlns:xlink="http://www.w3.org/1999/xlink" x="0px" y="0px"
	 viewBox="0 0 496 496" style="enable-background:new 0 0 496 496;" xml:space="preserve">
<g>
	<polygon style="fill:#F0BC5E;" points="406.488,352 395.408,280 252.592,280 241.512,352 	"/>
	<circle style="fill:#F0BC5E;" cx="112" cy="112" r="80"/>
</g>
<path d="M472,360c13.232,0,24-10.768,24-24s-10.768-24-24-24h-24v16h-12.832l-9.176-59.648C424.176,256.56,414.208,248,402.272,248
	H245.728c-11.936,0-21.904,8.56-23.72,20.352L212.832,328H200v-16h-24c-13.232,0-24,10.768-24,24s10.768,24,24,24h24v-16h10.368
	l-1.456,9.456C193.904,363.512,184,380.616,184,400v48h16v16c0,5.856,1.696,11.272,4.448,16H136V221.344
	c50.256-11.024,88-55.832,88-109.344C224,50.24,173.76,0,112,0S0,50.24,0,112c0,53.512,37.744,98.32,88,109.344V480H32v16h56h48h328
	v-16h-20.448c2.752-4.728,4.448-10.144,4.448-16v-16h16v-48c0-19.384-9.904-36.488-24.912-46.544L437.632,344H448v16H472z M184,344
	h-8c-4.408,0-8-3.592-8-8s3.592-8,8-8h8V344z M16,112c0-52.936,43.064-96,96-96s96,43.064,96,96s-43.064,96-96,96S16,164.936,16,112
	z M112,224c2.704,0,5.344-0.216,8-0.408V240h-16v-16.408C106.656,223.784,109.296,224,112,224z M104,480V256h16v224H104z
	 M447.192,392h-72.664c-3.312-9.288-12.112-16-22.528-16h-56c-10.416,0-19.216,6.712-22.528,16h-72.664
	c3.72-18.232,19.872-32,39.192-32h168C427.312,360,443.472,373.768,447.192,392z M200,432v-24h72v24H200z M264,448h120v16
	c0,5.856,1.696,11.272,4.448,16H259.552c2.752-4.728,4.448-10.144,4.448-16V448z M288,432v-32c0-4.408,3.592-8,8-8h56
	c4.408,0,8,3.592,8,8v32H288z M216,464v-16h32v16c0,8.824-7.176,16-16,16S216,472.824,216,464z M432,464c0,8.824-7.176,16-16,16
	s-16-7.176-16-16v-16h32V464z M376,432v-24h72v24H376z M408,344H240c-4.736,0-9.32,0.656-13.72,1.768l11.536-74.992
	c0.608-3.928,3.936-6.776,7.912-6.776h156.544c3.976,0,7.304,2.848,7.904,6.784l11.536,74.992C417.32,344.656,412.736,344,408,344z
	 M464,328h8c4.408,0,8,3.592,8,8s-3.592,8-8,8h-8V328z"/>
<path d="M160,88c0-17.648-14.352-32-32-32H80v104h16v-40h32C145.648,120,160,105.648,160,88z M96,72h32c8.824,0,16,7.176,16,16
	s-7.176,16-16,16H96V72z"/>
<rect x="256" y="312" width="104" height="16"/>
<rect x="376" y="312" width="16" height="16"/>
<rect x="480" y="480" width="16" height="16"/>
<rect y="480" width="16" height="16"/>
<g>
</g>
<g>
</g>
<g>
</g>
<g>
</g>
<g>
</g>
<g>
</g>
<g>
</g>
<g>
</g>
<g>
</g>
<g>
</g>
<g>
</g>
<g>
</g>
<g>
</g>
<g>
</g>
<g>
</g>
</svg>
