<?xml version="1.0"?>
<svg xmlns="http://www.w3.org/2000/svg" height="512px" version="1.1" viewBox="0 -330 1128.7478 1128" width="512px">
<g id="surface1">
<path d="M 817.746094 175.609375 L 856.6875 175.609375 L 856.6875 214.550781 L 817.746094 214.550781 Z M 817.746094 175.609375 " style=" fill-rule:nonzero;fill-opacity:1;" stroke="#08178a" fill="#08178a"/>
<path d="M 45.171875 329.542969 L 45.171875 329.324219 C 47.125 323.265625 49.515625 317.335938 52.316406 311.613281 C 52.859375 310.457031 53.394531 309.332031 53.953125 308.222656 C 56.785156 302.746094 59.992188 297.464844 63.558594 292.429688 L 8.066406 292.429688 Z M 45.171875 329.542969 " style=" fill-rule:nonzero;fill-opacity:1;" stroke="#08178a" fill="#08178a"/>
<path d="M 439.835938 59.027344 L 431.039062 0.375 L 409.804688 0.375 C 349.425781 0.441406 289.125 4.945312 229.402344 13.875 L 245.304688 40.351562 Z M 439.835938 59.027344 " style=" fill-rule:nonzero;fill-opacity:1;" stroke="#08178a" fill="#08178a"/>
<path d="M 729.839844 86.859375 L 682.847656 58.46875 C 627.695312 20.605469 562.359375 0.34375 495.460938 0.375 L 470.421875 0.375 L 479.804688 62.855469 Z M 729.839844 86.859375 " style=" fill-rule:nonzero;fill-opacity:1;" stroke="#08178a" fill="#08178a"/>
<path d="M 272.582031 370.316406 C 272.582031 424.078125 229.003906 467.660156 175.234375 467.660156 C 121.472656 467.660156 77.878906 424.078125 77.878906 370.316406 C 77.878906 316.546875 121.472656 272.953125 175.234375 272.953125 C 229.003906 272.953125 272.582031 316.546875 272.582031 370.316406 Z M 272.582031 370.316406 " style=" fill-rule:nonzero;fill-opacity:1;" stroke="#08178a" fill="#08178a"/>
<path d="M 1105.910156 214.550781 L 1051.390625 214.550781 L 1051.390625 175.609375 L 1068.183594 175.609375 C 1048.394531 162.109375 1025.433594 153.984375 1001.5625 152.050781 L 1001.398438 152.050781 L 812.238281 134.359375 L 485.785156 102.757812 L 508.40625 253.492188 L 798.28125 253.492188 L 798.28125 292.429688 L 514.230469 292.429688 L 523.015625 350.839844 L 838.609375 350.839844 C 838.8125 349.328125 839.183594 347.863281 839.457031 346.378906 C 839.789062 344.554688 840.097656 342.722656 840.488281 340.929688 C 841.058594 338.421875 841.722656 335.972656 842.441406 333.519531 C 842.921875 331.8125 843.351562 330.125 843.902344 328.449219 C 844.742188 325.890625 845.691406 323.390625 846.679688 320.875 C 847.25 319.4375 847.75 317.953125 848.386719 316.523438 C 849.621094 313.609375 851.019531 310.820312 852.464844 308.03125 C 852.972656 307.066406 853.382812 306.078125 853.902344 305.128906 C 855.929688 301.398438 858.125 297.792969 860.484375 294.304688 C 860.890625 293.707031 861.347656 293.167969 861.757812 292.566406 C 863.695312 289.734375 865.808594 286.921875 868.003906 284.230469 C 868.894531 283.121094 869.949219 282.09375 870.847656 280.996094 C 872.648438 278.921875 874.460938 276.863281 876.402344 274.90625 C 877.546875 273.738281 878.761719 272.640625 879.9375 271.515625 C 881.785156 269.765625 883.664062 268.011719 885.605469 266.363281 C 886.925781 265.25 888.273438 264.203125 889.625 263.148438 C 891.582031 261.605469 893.535156 260.117188 895.476562 258.6875 C 896.933594 257.683594 898.414062 256.738281 899.898438 255.753906 C 901.960938 254.429688 904.027344 253.15625 906.144531 251.855469 C 907.726562 250.957031 909.300781 250.101562 910.898438 249.269531 C 913.058594 248.136719 915.28125 247.078125 917.492188 246.078125 C 919.152344 245.328125 920.792969 244.589844 922.460938 243.917969 C 924.777344 242.96875 927.136719 242.136719 929.515625 241.335938 C 931.1875 240.761719 932.847656 240.148438 934.558594 239.640625 C 937.058594 238.90625 939.617188 238.285156 942.183594 237.699219 C 943.824219 237.308594 945.457031 236.875 947.132812 236.554688 C 949.992188 235.988281 952.960938 235.597656 955.804688 235.203125 C 957.253906 235.035156 958.664062 234.765625 960.113281 234.621094 C 964.496094 234.199219 968.953125 233.9375 973.457031 233.9375 C 977.949219 233.9375 982.410156 234.199219 986.789062 234.621094 C 988.25 234.765625 989.65625 235.035156 991.09375 235.203125 C 994.019531 235.597656 996.933594 235.988281 999.777344 236.554688 C 1001.445312 236.875 1003.085938 237.308594 1004.738281 237.699219 C 1007.285156 238.320312 1009.847656 238.925781 1012.359375 239.640625 C 1014.066406 240.148438 1015.722656 240.761719 1017.398438 241.335938 C 1019.765625 242.136719 1022.128906 242.96875 1024.445312 243.917969 C 1026.125 244.589844 1027.753906 245.328125 1029.417969 246.078125 C 1031.632812 247.078125 1033.851562 248.136719 1036.007812 249.269531 C 1037.609375 250.101562 1039.183594 250.957031 1040.769531 251.855469 C 1042.882812 253.058594 1044.945312 254.328125 1046.988281 255.753906 C 1048.492188 256.703125 1049.980469 257.695312 1051.429688 258.714844 C 1053.375 260.132812 1055.328125 261.605469 1057.277344 263.148438 C 1058.636719 264.203125 1059.980469 265.25 1061.308594 266.363281 C 1063.242188 268.011719 1065.195312 269.765625 1066.96875 271.515625 C 1068.152344 272.640625 1069.359375 273.738281 1070.511719 274.90625 C 1072.457031 276.863281 1074.242188 278.921875 1076.058594 280.996094 C 1077 282.09375 1078.007812 283.121094 1078.90625 284.230469 C 1081.078125 286.90625 1083.105469 289.660156 1085.074219 292.484375 C 1085.527344 293.113281 1086 293.667969 1086.414062 294.320312 C 1088.769531 297.8125 1090.964844 301.417969 1093 305.128906 C 1093.523438 306.0625 1093.9375 307.066406 1094.441406 308.03125 C 1095.882812 310.820312 1097.285156 313.609375 1098.527344 316.523438 C 1099.152344 317.953125 1099.660156 319.4375 1100.226562 320.875 C 1101.222656 323.390625 1102.167969 325.890625 1103.003906 328.449219 C 1103.554688 330.125 1103.984375 331.835938 1104.464844 333.542969 C 1105.148438 335.972656 1105.8125 338.421875 1106.421875 340.910156 C 1106.824219 342.722656 1107.140625 344.554688 1107.460938 346.402344 C 1107.738281 347.878906 1108.109375 349.347656 1108.324219 350.839844 L 1113.164062 350.839844 L 1128.746094 271.242188 C 1125.058594 250.996094 1117.292969 231.699219 1105.910156 214.550781 Z M 623.050781 195.074219 L 545.167969 195.074219 L 545.167969 156.136719 L 623.050781 156.136719 Z M 623.050781 195.074219 " style=" fill-rule:nonzero;fill-opacity:1;" stroke="#08178a" fill="#08178a"/>
<path d="M 1070.867188 370.316406 C 1070.867188 424.078125 1027.285156 467.660156 973.511719 467.660156 C 919.75 467.660156 876.164062 424.078125 876.164062 370.316406 C 876.164062 316.546875 919.75 272.953125 973.511719 272.953125 C 1027.285156 272.953125 1070.867188 316.546875 1070.867188 370.316406 Z M 1070.867188 370.316406 " style=" fill-rule:nonzero;fill-opacity:1;" stroke="#08178a" fill="#08178a"/>
<path d="M 331 292.429688 L 331 253.492188 L 469.015625 253.492188 L 445.863281 98.878906 L 231.695312 78.257812 C 225.558594 77.652344 220.082031 74.199219 216.898438 68.910156 L 188.082031 20.683594 C 171.316406 23.703125 156.714844 26.527344 142.855469 29.683594 L 116.820312 35.429688 L 116.820312 58.789062 C 116.820312 66.179688 112.660156 72.917969 106.058594 76.210938 L 9.734375 124.421875 C 4.882812 126.816406 1.449219 131.347656 0.464844 136.667969 L 77.878906 136.667969 L 77.878906 175.609375 L 0 175.609375 L 0 253.492188 L 105.394531 253.492188 C 107.34375 252.324219 109.292969 251.097656 111.230469 250.03125 C 111.9375 249.640625 112.699219 249.339844 113.398438 248.972656 C 118.601562 246.332031 123.980469 244.019531 129.472656 242.058594 C 130.554688 241.671875 131.605469 241.246094 132.6875 240.890625 C 138.707031 238.925781 144.859375 237.386719 151.089844 236.28125 C 152.414062 236.042969 153.753906 235.871094 155.074219 235.675781 C 161.746094 234.617188 168.476562 234.0625 175.234375 234.011719 C 179.726562 234.011719 184.1875 234.277344 188.570312 234.699219 C 190.03125 234.835938 191.433594 235.109375 192.875 235.28125 C 195.792969 235.675781 198.710938 236.0625 201.554688 236.632812 C 203.230469 236.96875 204.867188 237.394531 206.515625 237.777344 C 209.082031 238.398438 211.628906 239.003906 214.136719 239.71875 C 215.84375 240.234375 217.5 240.832031 219.179688 241.429688 C 221.542969 242.207031 223.90625 243.0625 226.222656 243.988281 C 227.902344 244.675781 229.535156 245.40625 231.1875 246.152344 C 233.414062 247.164062 235.625 248.210938 237.789062 249.339844 C 239.386719 250.179688 240.960938 251.035156 242.542969 251.933594 C 244.660156 253.132812 246.722656 254.410156 248.765625 255.824219 C 250.269531 256.777344 251.757812 257.773438 253.207031 258.785156 C 255.160156 260.210938 257.203125 261.683594 259.058594 263.222656 C 260.414062 264.28125 261.757812 265.328125 263.085938 266.4375 C 265.039062 268.085938 266.976562 269.847656 268.746094 271.597656 C 269.941406 272.730469 271.140625 273.8125 272.289062 274.980469 C 274.230469 276.9375 276.035156 279 277.839844 281.078125 C 278.777344 282.164062 279.785156 283.199219 280.683594 284.300781 C 282.855469 286.984375 284.886719 289.746094 286.855469 292.566406 C 287.304688 293.191406 287.796875 293.757812 288.203125 294.390625 C 290.558594 297.886719 292.757812 301.492188 294.777344 305.203125 C 295.304688 306.140625 295.714844 307.15625 296.21875 308.105469 C 297.664062 310.890625 299.0625 313.691406 300.304688 316.601562 C 300.929688 318.03125 301.4375 319.511719 302.003906 320.957031 C 303 323.464844 303.945312 325.960938 304.789062 328.527344 C 305.332031 330.203125 305.765625 331.917969 306.242188 333.617188 C 306.925781 336.050781 307.589844 338.5 308.199219 340.984375 C 308.605469 342.792969 308.917969 344.628906 309.25 346.488281 C 309.519531 347.957031 309.886719 349.425781 310.109375 350.917969 L 483.582031 350.917969 L 474.808594 292.503906 Z M 311.523438 175.609375 L 233.644531 175.609375 L 233.644531 136.667969 L 311.523438 136.667969 Z M 311.523438 175.609375 " style=" fill-rule:nonzero;fill-opacity:1;" stroke="#08178a" fill="#08178a"/>
<path d="M 175.234375 311.898438 C 142.976562 311.898438 116.820312 338.050781 116.820312 370.316406 C 116.820312 402.574219 142.976562 428.71875 175.234375 428.71875 C 207.492188 428.71875 233.644531 402.574219 233.644531 370.316406 C 233.644531 338.050781 207.492188 311.898438 175.234375 311.898438 Z M 175.234375 389.777344 C 164.480469 389.777344 155.765625 381.058594 155.765625 370.316406 C 155.765625 359.550781 164.480469 350.839844 175.234375 350.839844 C 185.988281 350.839844 194.707031 359.550781 194.707031 370.316406 C 194.707031 381.058594 185.988281 389.777344 175.234375 389.777344 Z M 175.234375 389.777344 " style=" fill-rule:nonzero;fill-opacity:1;" stroke="#08178a" fill="#08178a"/>
<path d="M 973.511719 311.898438 C 941.257812 311.898438 915.105469 338.050781 915.105469 370.316406 C 915.105469 402.574219 941.257812 428.71875 973.511719 428.71875 C 1005.765625 428.71875 1031.929688 402.574219 1031.929688 370.316406 C 1031.929688 338.050781 1005.765625 311.898438 973.511719 311.898438 Z M 973.511719 389.777344 C 962.761719 389.777344 954.042969 381.058594 954.042969 370.316406 C 954.042969 359.550781 962.761719 350.839844 973.511719 350.839844 C 984.269531 350.839844 992.988281 359.550781 992.988281 370.316406 C 992.988281 381.058594 984.269531 389.777344 973.511719 389.777344 Z M 973.511719 389.777344 " style=" fill-rule:nonzero;fill-opacity:1;" stroke="#08178a" fill="#08178a"/>
</g>
</svg>
